<?xml version="1.0" encoding="UTF-8" standalone="no"?>
<!DOCTYPE svg PUBLIC "-//W3C//DTD SVG 1.1//EN"
 "http://www.w3.org/Graphics/SVG/1.1/DTD/svg11.dtd">
<!-- Generated by graphviz version 2.38.0 (20140413.2041)
 -->
<!-- Title: snakemake_dag Pages: 1 -->
<svg width="231pt" height="476pt"
 viewBox="0.00 0.00 230.50 476.00" xmlns="http://www.w3.org/2000/svg" xmlns:xlink="http://www.w3.org/1999/xlink">
<g id="graph0" class="graph" transform="scale(1 1) rotate(0) translate(4 472)">
<title>snakemake_dag</title>
<polygon fill="white" stroke="none" points="-4,4 -4,-472 226.5,-472 226.5,4 -4,4"/>
<!-- 0 -->
<g id="node1" class="node"><title>0</title>
<path fill="none" stroke="#d8a456" stroke-width="2" d="M99,-36C99,-36 69,-36 69,-36 63,-36 57,-30 57,-24 57,-24 57,-12 57,-12 57,-6 63,-0 69,-0 69,-0 99,-0 99,-0 105,-0 111,-6 111,-12 111,-12 111,-24 111,-24 111,-30 105,-36 99,-36"/>
<text text-anchor="middle" x="84" y="-15.5" font-family="sans" font-size="10.00">all</text>
</g>
<!-- 1 -->
<g id="node2" class="node"><title>1</title>
<path fill="none" stroke="#d85656" stroke-width="2" d="M137.5,-108C137.5,-108 30.5,-108 30.5,-108 24.5,-108 18.5,-102 18.5,-96 18.5,-96 18.5,-84 18.5,-84 18.5,-78 24.5,-72 30.5,-72 30.5,-72 137.5,-72 137.5,-72 143.5,-72 149.5,-78 149.5,-84 149.5,-84 149.5,-96 149.5,-96 149.5,-102 143.5,-108 137.5,-108"/>
<text text-anchor="middle" x="84" y="-87.5" font-family="sans" font-size="10.00">get_data_ready_Epiclomal</text>
</g>
<!-- 1&#45;&gt;0 -->
<g id="edge1" class="edge"><title>1&#45;&gt;0</title>
<path fill="none" stroke="grey" stroke-width="2" d="M84,-71.6966C84,-63.9827 84,-54.7125 84,-46.1124"/>
<polygon fill="grey" stroke="grey" stroke-width="2" points="87.5001,-46.1043 84,-36.1043 80.5001,-46.1044 87.5001,-46.1043"/>
</g>
<!-- 2 -->
<g id="node3" class="node"><title>2</title>
<path fill="none" stroke="#56a2d8" stroke-width="2" d="M169,-252C169,-252 75,-252 75,-252 69,-252 63,-246 63,-240 63,-240 63,-228 63,-228 63,-222 69,-216 75,-216 75,-216 169,-216 169,-216 175,-216 181,-222 181,-228 181,-228 181,-240 181,-240 181,-246 175,-252 169,-252"/>
<text text-anchor="middle" x="122" y="-231.5" font-family="sans" font-size="10.00">prep_stats_methylation</text>
</g>
<!-- 2&#45;&gt;1 -->
<g id="edge2" class="edge"><title>2&#45;&gt;1</title>
<path fill="none" stroke="grey" stroke-width="2" d="M119.03,-215.771C115.754,-197.719 110.006,-168.618 103,-144 100.565,-135.445 97.4605,-126.275 94.4699,-118.008"/>
<polygon fill="grey" stroke="grey" stroke-width="2" points="97.6925,-116.632 90.9313,-108.475 91.1299,-119.068 97.6925,-116.632"/>
</g>
<!-- 3 -->
<g id="node4" class="node"><title>3</title>
<path fill="none" stroke="#56d8c9" stroke-width="2" d="M82,-180C82,-180 12,-180 12,-180 6,-180 -7.10543e-15,-174 -7.10543e-15,-168 -7.10543e-15,-168 -7.10543e-15,-156 -7.10543e-15,-156 -7.10543e-15,-150 6,-144 12,-144 12,-144 82,-144 82,-144 88,-144 94,-150 94,-156 94,-156 94,-168 94,-168 94,-174 88,-180 82,-180"/>
<text text-anchor="middle" x="47" y="-159.5" font-family="sans" font-size="10.00">stats_methylation</text>
</g>
<!-- 2&#45;&gt;3 -->
<g id="edge5" class="edge"><title>2&#45;&gt;3</title>
<path fill="none" stroke="grey" stroke-width="2" d="M103.461,-215.697C94.1967,-207.05 82.8377,-196.449 72.7433,-187.027"/>
<polygon fill="grey" stroke="grey" stroke-width="2" points="75.0248,-184.369 65.3261,-180.104 70.2485,-189.486 75.0248,-184.369"/>
</g>
<!-- 3&#45;&gt;1 -->
<g id="edge3" class="edge"><title>3&#45;&gt;1</title>
<path fill="none" stroke="grey" stroke-width="2" d="M56.1461,-143.697C60.4026,-135.644 65.5558,-125.894 70.2664,-116.982"/>
<polygon fill="grey" stroke="grey" stroke-width="2" points="73.3803,-118.581 74.9591,-108.104 67.1917,-115.31 73.3803,-118.581"/>
</g>
<!-- 4 -->
<g id="node5" class="node"><title>4</title>
<path fill="none" stroke="#78d856" stroke-width="2" d="M195,-324C195,-324 73,-324 73,-324 67,-324 61,-318 61,-312 61,-312 61,-300 61,-300 61,-294 67,-288 73,-288 73,-288 195,-288 195,-288 201,-288 207,-294 207,-300 207,-300 207,-312 207,-312 207,-318 201,-324 195,-324"/>
<text text-anchor="middle" x="134" y="-303.5" font-family="sans" font-size="10.00">cell_based_stats_methylation</text>
</g>
<!-- 4&#45;&gt;2 -->
<g id="edge4" class="edge"><title>4&#45;&gt;2</title>
<path fill="none" stroke="grey" stroke-width="2" d="M131.034,-287.697C129.711,-279.983 128.122,-270.712 126.648,-262.112"/>
<polygon fill="grey" stroke="grey" stroke-width="2" points="130.072,-261.369 124.932,-252.104 123.172,-262.552 130.072,-261.369"/>
</g>
<!-- 5 -->
<g id="node6" class="node"><title>5</title>
<path fill="none" stroke="#56d87b" stroke-width="2" d="M124,-468C124,-468 42,-468 42,-468 36,-468 30,-462 30,-456 30,-456 30,-444 30,-444 30,-438 36,-432 42,-432 42,-432 124,-432 124,-432 130,-432 136,-438 136,-444 136,-444 136,-456 136,-456 136,-462 130,-468 124,-468"/>
<text text-anchor="middle" x="83" y="-453" font-family="sans" font-size="10.00">get_cpgs_in_regions</text>
<text text-anchor="middle" x="83" y="-442" font-family="sans" font-size="10.00">CHR: chr1</text>
</g>
<!-- 5&#45;&gt;3 -->
<g id="edge6" class="edge"><title>5&#45;&gt;3</title>
<path fill="none" stroke="grey" stroke-width="2" d="M67.3901,-431.774C59.6271,-422.03 51.0541,-409.184 47,-396 24.9771,-324.383 34.8233,-234.422 41.9505,-190.156"/>
<polygon fill="grey" stroke="grey" stroke-width="2" points="45.422,-190.618 43.6387,-180.174 38.5201,-189.451 45.422,-190.618"/>
</g>
<!-- 6 -->
<g id="node7" class="node"><title>6</title>
<path fill="none" stroke="#c6d856" stroke-width="2" d="M210.5,-396C210.5,-396 67.5,-396 67.5,-396 61.5,-396 55.5,-390 55.5,-384 55.5,-384 55.5,-372 55.5,-372 55.5,-366 61.5,-360 67.5,-360 67.5,-360 210.5,-360 210.5,-360 216.5,-360 222.5,-366 222.5,-372 222.5,-372 222.5,-384 222.5,-384 222.5,-390 216.5,-396 210.5,-396"/>
<text text-anchor="middle" x="139" y="-381" font-family="sans" font-size="10.00">cell_based_methylation_extraction</text>
<text text-anchor="middle" x="139" y="-370" font-family="sans" font-size="10.00">cells: GSM1370535_2i_1</text>
</g>
<!-- 5&#45;&gt;6 -->
<g id="edge8" class="edge"><title>5&#45;&gt;6</title>
<path fill="none" stroke="grey" stroke-width="2" d="M96.8427,-431.697C103.489,-423.389 111.578,-413.277 118.887,-404.141"/>
<polygon fill="grey" stroke="grey" stroke-width="2" points="121.803,-406.099 125.317,-396.104 116.336,-401.727 121.803,-406.099"/>
</g>
<!-- 6&#45;&gt;4 -->
<g id="edge7" class="edge"><title>6&#45;&gt;4</title>
<path fill="none" stroke="grey" stroke-width="2" d="M137.764,-359.697C137.213,-351.983 136.551,-342.712 135.937,-334.112"/>
<polygon fill="grey" stroke="grey" stroke-width="2" points="139.425,-333.83 135.222,-324.104 132.443,-334.328 139.425,-333.83"/>
</g>
</g>
</svg>
